<mxfile host="app.diagrams.net" modified="2021-05-17T17:01:13.015Z" agent="5.0 (Windows)" etag="JNUtFzXnVyUVlUHgr7pL" version="14.6.12" type="github">
  <diagram id="Km1avnOKh6-WMe3BO04y" name="Page-1">
    <mxGraphModel dx="1427" dy="524" grid="1" gridSize="10" guides="1" tooltips="1" connect="1" arrows="1" fold="1" page="0" pageScale="1" pageWidth="850" pageHeight="1100" math="0" shadow="0">
      <root>
        <mxCell id="0" />
        <mxCell id="1" parent="0" />
        <mxCell id="9TZeHPsGMFFsfMQyyFmC-1" value="USER" style="shape=table;startSize=30;container=1;collapsible=1;childLayout=tableLayout;fixedRows=1;rowLines=0;fontStyle=1;align=center;resizeLast=1;" vertex="1" parent="1">
          <mxGeometry x="70" y="40" width="180" height="160" as="geometry" />
        </mxCell>
        <mxCell id="9TZeHPsGMFFsfMQyyFmC-2" value="" style="shape=partialRectangle;collapsible=0;dropTarget=0;pointerEvents=0;fillColor=none;top=0;left=0;bottom=1;right=0;points=[[0,0.5],[1,0.5]];portConstraint=eastwest;" vertex="1" parent="9TZeHPsGMFFsfMQyyFmC-1">
          <mxGeometry y="30" width="180" height="30" as="geometry" />
        </mxCell>
        <mxCell id="9TZeHPsGMFFsfMQyyFmC-3" value="PK" style="shape=partialRectangle;connectable=0;fillColor=none;top=0;left=0;bottom=0;right=0;fontStyle=1;overflow=hidden;" vertex="1" parent="9TZeHPsGMFFsfMQyyFmC-2">
          <mxGeometry width="30" height="30" as="geometry" />
        </mxCell>
        <mxCell id="9TZeHPsGMFFsfMQyyFmC-4" value="email" style="shape=partialRectangle;connectable=0;fillColor=none;top=0;left=0;bottom=0;right=0;align=left;spacingLeft=6;fontStyle=5;overflow=hidden;" vertex="1" parent="9TZeHPsGMFFsfMQyyFmC-2">
          <mxGeometry x="30" width="150" height="30" as="geometry" />
        </mxCell>
        <mxCell id="9TZeHPsGMFFsfMQyyFmC-5" value="" style="shape=partialRectangle;collapsible=0;dropTarget=0;pointerEvents=0;fillColor=none;top=0;left=0;bottom=0;right=0;points=[[0,0.5],[1,0.5]];portConstraint=eastwest;" vertex="1" parent="9TZeHPsGMFFsfMQyyFmC-1">
          <mxGeometry y="60" width="180" height="30" as="geometry" />
        </mxCell>
        <mxCell id="9TZeHPsGMFFsfMQyyFmC-6" value="" style="shape=partialRectangle;connectable=0;fillColor=none;top=0;left=0;bottom=0;right=0;editable=1;overflow=hidden;" vertex="1" parent="9TZeHPsGMFFsfMQyyFmC-5">
          <mxGeometry width="30" height="30" as="geometry" />
        </mxCell>
        <mxCell id="9TZeHPsGMFFsfMQyyFmC-7" value="id" style="shape=partialRectangle;connectable=0;fillColor=none;top=0;left=0;bottom=0;right=0;align=left;spacingLeft=6;overflow=hidden;" vertex="1" parent="9TZeHPsGMFFsfMQyyFmC-5">
          <mxGeometry x="30" width="150" height="30" as="geometry" />
        </mxCell>
        <mxCell id="9TZeHPsGMFFsfMQyyFmC-8" value="" style="shape=partialRectangle;collapsible=0;dropTarget=0;pointerEvents=0;fillColor=none;top=0;left=0;bottom=0;right=0;points=[[0,0.5],[1,0.5]];portConstraint=eastwest;" vertex="1" parent="9TZeHPsGMFFsfMQyyFmC-1">
          <mxGeometry y="90" width="180" height="30" as="geometry" />
        </mxCell>
        <mxCell id="9TZeHPsGMFFsfMQyyFmC-9" value="" style="shape=partialRectangle;connectable=0;fillColor=none;top=0;left=0;bottom=0;right=0;editable=1;overflow=hidden;" vertex="1" parent="9TZeHPsGMFFsfMQyyFmC-8">
          <mxGeometry width="30" height="30" as="geometry" />
        </mxCell>
        <mxCell id="9TZeHPsGMFFsfMQyyFmC-10" value="name" style="shape=partialRectangle;connectable=0;fillColor=none;top=0;left=0;bottom=0;right=0;align=left;spacingLeft=6;overflow=hidden;" vertex="1" parent="9TZeHPsGMFFsfMQyyFmC-8">
          <mxGeometry x="30" width="150" height="30" as="geometry" />
        </mxCell>
        <mxCell id="9TZeHPsGMFFsfMQyyFmC-11" value="" style="shape=partialRectangle;collapsible=0;dropTarget=0;pointerEvents=0;fillColor=none;top=0;left=0;bottom=0;right=0;points=[[0,0.5],[1,0.5]];portConstraint=eastwest;" vertex="1" parent="9TZeHPsGMFFsfMQyyFmC-1">
          <mxGeometry y="120" width="180" height="30" as="geometry" />
        </mxCell>
        <mxCell id="9TZeHPsGMFFsfMQyyFmC-12" value="" style="shape=partialRectangle;connectable=0;fillColor=none;top=0;left=0;bottom=0;right=0;editable=1;overflow=hidden;" vertex="1" parent="9TZeHPsGMFFsfMQyyFmC-11">
          <mxGeometry width="30" height="30" as="geometry" />
        </mxCell>
        <mxCell id="9TZeHPsGMFFsfMQyyFmC-13" value="password" style="shape=partialRectangle;connectable=0;fillColor=none;top=0;left=0;bottom=0;right=0;align=left;spacingLeft=6;overflow=hidden;" vertex="1" parent="9TZeHPsGMFFsfMQyyFmC-11">
          <mxGeometry x="30" width="150" height="30" as="geometry" />
        </mxCell>
        <mxCell id="9TZeHPsGMFFsfMQyyFmC-14" value="CLASS" style="shape=table;startSize=30;container=1;collapsible=1;childLayout=tableLayout;fixedRows=1;rowLines=0;fontStyle=1;align=center;resizeLast=1;" vertex="1" parent="1">
          <mxGeometry x="70" y="260" width="180" height="190" as="geometry" />
        </mxCell>
        <mxCell id="9TZeHPsGMFFsfMQyyFmC-15" value="" style="shape=partialRectangle;collapsible=0;dropTarget=0;pointerEvents=0;fillColor=none;top=0;left=0;bottom=1;right=0;points=[[0,0.5],[1,0.5]];portConstraint=eastwest;" vertex="1" parent="9TZeHPsGMFFsfMQyyFmC-14">
          <mxGeometry y="30" width="180" height="30" as="geometry" />
        </mxCell>
        <mxCell id="9TZeHPsGMFFsfMQyyFmC-16" value="PK" style="shape=partialRectangle;connectable=0;fillColor=none;top=0;left=0;bottom=0;right=0;fontStyle=1;overflow=hidden;" vertex="1" parent="9TZeHPsGMFFsfMQyyFmC-15">
          <mxGeometry width="30" height="30" as="geometry" />
        </mxCell>
        <mxCell id="9TZeHPsGMFFsfMQyyFmC-17" value="id" style="shape=partialRectangle;connectable=0;fillColor=none;top=0;left=0;bottom=0;right=0;align=left;spacingLeft=6;fontStyle=5;overflow=hidden;" vertex="1" parent="9TZeHPsGMFFsfMQyyFmC-15">
          <mxGeometry x="30" width="150" height="30" as="geometry" />
        </mxCell>
        <mxCell id="9TZeHPsGMFFsfMQyyFmC-18" value="" style="shape=partialRectangle;collapsible=0;dropTarget=0;pointerEvents=0;fillColor=none;top=0;left=0;bottom=0;right=0;points=[[0,0.5],[1,0.5]];portConstraint=eastwest;" vertex="1" parent="9TZeHPsGMFFsfMQyyFmC-14">
          <mxGeometry y="60" width="180" height="30" as="geometry" />
        </mxCell>
        <mxCell id="9TZeHPsGMFFsfMQyyFmC-19" value="FK" style="shape=partialRectangle;connectable=0;fillColor=none;top=0;left=0;bottom=0;right=0;editable=1;overflow=hidden;" vertex="1" parent="9TZeHPsGMFFsfMQyyFmC-18">
          <mxGeometry width="30" height="30" as="geometry" />
        </mxCell>
        <mxCell id="9TZeHPsGMFFsfMQyyFmC-20" value="admin" style="shape=partialRectangle;connectable=0;fillColor=none;top=0;left=0;bottom=0;right=0;align=left;spacingLeft=6;overflow=hidden;" vertex="1" parent="9TZeHPsGMFFsfMQyyFmC-18">
          <mxGeometry x="30" width="150" height="30" as="geometry" />
        </mxCell>
        <mxCell id="9TZeHPsGMFFsfMQyyFmC-21" value="" style="shape=partialRectangle;collapsible=0;dropTarget=0;pointerEvents=0;fillColor=none;top=0;left=0;bottom=0;right=0;points=[[0,0.5],[1,0.5]];portConstraint=eastwest;" vertex="1" parent="9TZeHPsGMFFsfMQyyFmC-14">
          <mxGeometry y="90" width="180" height="30" as="geometry" />
        </mxCell>
        <mxCell id="9TZeHPsGMFFsfMQyyFmC-22" value="" style="shape=partialRectangle;connectable=0;fillColor=none;top=0;left=0;bottom=0;right=0;editable=1;overflow=hidden;" vertex="1" parent="9TZeHPsGMFFsfMQyyFmC-21">
          <mxGeometry width="30" height="30" as="geometry" />
        </mxCell>
        <mxCell id="9TZeHPsGMFFsfMQyyFmC-23" value="name" style="shape=partialRectangle;connectable=0;fillColor=none;top=0;left=0;bottom=0;right=0;align=left;spacingLeft=6;overflow=hidden;" vertex="1" parent="9TZeHPsGMFFsfMQyyFmC-21">
          <mxGeometry x="30" width="150" height="30" as="geometry" />
        </mxCell>
        <mxCell id="9TZeHPsGMFFsfMQyyFmC-24" value="" style="shape=partialRectangle;collapsible=0;dropTarget=0;pointerEvents=0;fillColor=none;top=0;left=0;bottom=0;right=0;points=[[0,0.5],[1,0.5]];portConstraint=eastwest;" vertex="1" parent="9TZeHPsGMFFsfMQyyFmC-14">
          <mxGeometry y="120" width="180" height="30" as="geometry" />
        </mxCell>
        <mxCell id="9TZeHPsGMFFsfMQyyFmC-25" value="" style="shape=partialRectangle;connectable=0;fillColor=none;top=0;left=0;bottom=0;right=0;editable=1;overflow=hidden;" vertex="1" parent="9TZeHPsGMFFsfMQyyFmC-24">
          <mxGeometry width="30" height="30" as="geometry" />
        </mxCell>
        <mxCell id="9TZeHPsGMFFsfMQyyFmC-26" value="subject" style="shape=partialRectangle;connectable=0;fillColor=none;top=0;left=0;bottom=0;right=0;align=left;spacingLeft=6;overflow=hidden;" vertex="1" parent="9TZeHPsGMFFsfMQyyFmC-24">
          <mxGeometry x="30" width="150" height="30" as="geometry" />
        </mxCell>
        <mxCell id="9TZeHPsGMFFsfMQyyFmC-27" value="" style="shape=partialRectangle;collapsible=0;dropTarget=0;pointerEvents=0;fillColor=none;top=0;left=0;bottom=0;right=0;points=[[0,0.5],[1,0.5]];portConstraint=eastwest;" vertex="1" parent="9TZeHPsGMFFsfMQyyFmC-14">
          <mxGeometry y="150" width="180" height="30" as="geometry" />
        </mxCell>
        <mxCell id="9TZeHPsGMFFsfMQyyFmC-28" value="" style="shape=partialRectangle;connectable=0;fillColor=none;top=0;left=0;bottom=0;right=0;editable=1;overflow=hidden;" vertex="1" parent="9TZeHPsGMFFsfMQyyFmC-27">
          <mxGeometry width="30" height="30" as="geometry" />
        </mxCell>
        <mxCell id="9TZeHPsGMFFsfMQyyFmC-29" value="unique_id" style="shape=partialRectangle;connectable=0;fillColor=none;top=0;left=0;bottom=0;right=0;align=left;spacingLeft=6;overflow=hidden;" vertex="1" parent="9TZeHPsGMFFsfMQyyFmC-27">
          <mxGeometry x="30" width="150" height="30" as="geometry" />
        </mxCell>
        <mxCell id="9TZeHPsGMFFsfMQyyFmC-30" value="QUESTION" style="shape=table;startSize=30;container=1;collapsible=1;childLayout=tableLayout;fixedRows=1;rowLines=0;fontStyle=1;align=center;resizeLast=1;" vertex="1" parent="1">
          <mxGeometry x="-230" y="290" width="180" height="190" as="geometry" />
        </mxCell>
        <mxCell id="9TZeHPsGMFFsfMQyyFmC-31" value="" style="shape=partialRectangle;collapsible=0;dropTarget=0;pointerEvents=0;fillColor=none;top=0;left=0;bottom=1;right=0;points=[[0,0.5],[1,0.5]];portConstraint=eastwest;" vertex="1" parent="9TZeHPsGMFFsfMQyyFmC-30">
          <mxGeometry y="30" width="180" height="30" as="geometry" />
        </mxCell>
        <mxCell id="9TZeHPsGMFFsfMQyyFmC-32" value="PK" style="shape=partialRectangle;connectable=0;fillColor=none;top=0;left=0;bottom=0;right=0;fontStyle=1;overflow=hidden;" vertex="1" parent="9TZeHPsGMFFsfMQyyFmC-31">
          <mxGeometry width="30" height="30" as="geometry" />
        </mxCell>
        <mxCell id="9TZeHPsGMFFsfMQyyFmC-33" value="id" style="shape=partialRectangle;connectable=0;fillColor=none;top=0;left=0;bottom=0;right=0;align=left;spacingLeft=6;fontStyle=5;overflow=hidden;" vertex="1" parent="9TZeHPsGMFFsfMQyyFmC-31">
          <mxGeometry x="30" width="150" height="30" as="geometry" />
        </mxCell>
        <mxCell id="9TZeHPsGMFFsfMQyyFmC-34" value="" style="shape=partialRectangle;collapsible=0;dropTarget=0;pointerEvents=0;fillColor=none;top=0;left=0;bottom=0;right=0;points=[[0,0.5],[1,0.5]];portConstraint=eastwest;" vertex="1" parent="9TZeHPsGMFFsfMQyyFmC-30">
          <mxGeometry y="60" width="180" height="30" as="geometry" />
        </mxCell>
        <mxCell id="9TZeHPsGMFFsfMQyyFmC-35" value="FK" style="shape=partialRectangle;connectable=0;fillColor=none;top=0;left=0;bottom=0;right=0;editable=1;overflow=hidden;" vertex="1" parent="9TZeHPsGMFFsfMQyyFmC-34">
          <mxGeometry width="30" height="30" as="geometry" />
        </mxCell>
        <mxCell id="9TZeHPsGMFFsfMQyyFmC-36" value="id(class)" style="shape=partialRectangle;connectable=0;fillColor=none;top=0;left=0;bottom=0;right=0;align=left;spacingLeft=6;overflow=hidden;" vertex="1" parent="9TZeHPsGMFFsfMQyyFmC-34">
          <mxGeometry x="30" width="150" height="30" as="geometry" />
        </mxCell>
        <mxCell id="9TZeHPsGMFFsfMQyyFmC-37" value="" style="shape=partialRectangle;collapsible=0;dropTarget=0;pointerEvents=0;fillColor=none;top=0;left=0;bottom=0;right=0;points=[[0,0.5],[1,0.5]];portConstraint=eastwest;" vertex="1" parent="9TZeHPsGMFFsfMQyyFmC-30">
          <mxGeometry y="90" width="180" height="30" as="geometry" />
        </mxCell>
        <mxCell id="9TZeHPsGMFFsfMQyyFmC-38" value="" style="shape=partialRectangle;connectable=0;fillColor=none;top=0;left=0;bottom=0;right=0;editable=1;overflow=hidden;" vertex="1" parent="9TZeHPsGMFFsfMQyyFmC-37">
          <mxGeometry width="30" height="30" as="geometry" />
        </mxCell>
        <mxCell id="9TZeHPsGMFFsfMQyyFmC-39" value="description" style="shape=partialRectangle;connectable=0;fillColor=none;top=0;left=0;bottom=0;right=0;align=left;spacingLeft=6;overflow=hidden;" vertex="1" parent="9TZeHPsGMFFsfMQyyFmC-37">
          <mxGeometry x="30" width="150" height="30" as="geometry" />
        </mxCell>
        <mxCell id="9TZeHPsGMFFsfMQyyFmC-40" value="" style="shape=partialRectangle;collapsible=0;dropTarget=0;pointerEvents=0;fillColor=none;top=0;left=0;bottom=0;right=0;points=[[0,0.5],[1,0.5]];portConstraint=eastwest;" vertex="1" parent="9TZeHPsGMFFsfMQyyFmC-30">
          <mxGeometry y="120" width="180" height="30" as="geometry" />
        </mxCell>
        <mxCell id="9TZeHPsGMFFsfMQyyFmC-41" value="" style="shape=partialRectangle;connectable=0;fillColor=none;top=0;left=0;bottom=0;right=0;editable=1;overflow=hidden;" vertex="1" parent="9TZeHPsGMFFsfMQyyFmC-40">
          <mxGeometry width="30" height="30" as="geometry" />
        </mxCell>
        <mxCell id="9TZeHPsGMFFsfMQyyFmC-42" value="date" style="shape=partialRectangle;connectable=0;fillColor=none;top=0;left=0;bottom=0;right=0;align=left;spacingLeft=6;overflow=hidden;" vertex="1" parent="9TZeHPsGMFFsfMQyyFmC-40">
          <mxGeometry x="30" width="150" height="30" as="geometry" />
        </mxCell>
        <mxCell id="9TZeHPsGMFFsfMQyyFmC-43" value="" style="shape=partialRectangle;collapsible=0;dropTarget=0;pointerEvents=0;fillColor=none;top=0;left=0;bottom=0;right=0;points=[[0,0.5],[1,0.5]];portConstraint=eastwest;" vertex="1" parent="9TZeHPsGMFFsfMQyyFmC-30">
          <mxGeometry y="150" width="180" height="30" as="geometry" />
        </mxCell>
        <mxCell id="9TZeHPsGMFFsfMQyyFmC-44" value="" style="shape=partialRectangle;connectable=0;fillColor=none;top=0;left=0;bottom=0;right=0;editable=1;overflow=hidden;" vertex="1" parent="9TZeHPsGMFFsfMQyyFmC-43">
          <mxGeometry width="30" height="30" as="geometry" />
        </mxCell>
        <mxCell id="9TZeHPsGMFFsfMQyyFmC-45" value="deadline" style="shape=partialRectangle;connectable=0;fillColor=none;top=0;left=0;bottom=0;right=0;align=left;spacingLeft=6;overflow=hidden;" vertex="1" parent="9TZeHPsGMFFsfMQyyFmC-43">
          <mxGeometry x="30" width="150" height="30" as="geometry" />
        </mxCell>
        <mxCell id="9TZeHPsGMFFsfMQyyFmC-46" value="ANSWER" style="shape=table;startSize=30;container=1;collapsible=1;childLayout=tableLayout;fixedRows=1;rowLines=0;fontStyle=1;align=center;resizeLast=1;" vertex="1" parent="1">
          <mxGeometry x="-230" y="40" width="180" height="190" as="geometry" />
        </mxCell>
        <mxCell id="9TZeHPsGMFFsfMQyyFmC-47" value="" style="shape=partialRectangle;collapsible=0;dropTarget=0;pointerEvents=0;fillColor=none;top=0;left=0;bottom=1;right=0;points=[[0,0.5],[1,0.5]];portConstraint=eastwest;" vertex="1" parent="9TZeHPsGMFFsfMQyyFmC-46">
          <mxGeometry y="30" width="180" height="30" as="geometry" />
        </mxCell>
        <mxCell id="9TZeHPsGMFFsfMQyyFmC-48" value="PK" style="shape=partialRectangle;connectable=0;fillColor=none;top=0;left=0;bottom=0;right=0;fontStyle=1;overflow=hidden;" vertex="1" parent="9TZeHPsGMFFsfMQyyFmC-47">
          <mxGeometry width="30" height="30" as="geometry" />
        </mxCell>
        <mxCell id="9TZeHPsGMFFsfMQyyFmC-49" value="id" style="shape=partialRectangle;connectable=0;fillColor=none;top=0;left=0;bottom=0;right=0;align=left;spacingLeft=6;fontStyle=5;overflow=hidden;" vertex="1" parent="9TZeHPsGMFFsfMQyyFmC-47">
          <mxGeometry x="30" width="150" height="30" as="geometry" />
        </mxCell>
        <mxCell id="9TZeHPsGMFFsfMQyyFmC-50" value="" style="shape=partialRectangle;collapsible=0;dropTarget=0;pointerEvents=0;fillColor=none;top=0;left=0;bottom=0;right=0;points=[[0,0.5],[1,0.5]];portConstraint=eastwest;" vertex="1" parent="9TZeHPsGMFFsfMQyyFmC-46">
          <mxGeometry y="60" width="180" height="30" as="geometry" />
        </mxCell>
        <mxCell id="9TZeHPsGMFFsfMQyyFmC-51" value="FK" style="shape=partialRectangle;connectable=0;fillColor=none;top=0;left=0;bottom=0;right=0;editable=1;overflow=hidden;" vertex="1" parent="9TZeHPsGMFFsfMQyyFmC-50">
          <mxGeometry width="30" height="30" as="geometry" />
        </mxCell>
        <mxCell id="9TZeHPsGMFFsfMQyyFmC-52" value="id(user)" style="shape=partialRectangle;connectable=0;fillColor=none;top=0;left=0;bottom=0;right=0;align=left;spacingLeft=6;overflow=hidden;" vertex="1" parent="9TZeHPsGMFFsfMQyyFmC-50">
          <mxGeometry x="30" width="150" height="30" as="geometry" />
        </mxCell>
        <mxCell id="9TZeHPsGMFFsfMQyyFmC-53" value="" style="shape=partialRectangle;collapsible=0;dropTarget=0;pointerEvents=0;fillColor=none;top=0;left=0;bottom=0;right=0;points=[[0,0.5],[1,0.5]];portConstraint=eastwest;" vertex="1" parent="9TZeHPsGMFFsfMQyyFmC-46">
          <mxGeometry y="90" width="180" height="30" as="geometry" />
        </mxCell>
        <mxCell id="9TZeHPsGMFFsfMQyyFmC-54" value="FK" style="shape=partialRectangle;connectable=0;fillColor=none;top=0;left=0;bottom=0;right=0;editable=1;overflow=hidden;" vertex="1" parent="9TZeHPsGMFFsfMQyyFmC-53">
          <mxGeometry width="30" height="30" as="geometry" />
        </mxCell>
        <mxCell id="9TZeHPsGMFFsfMQyyFmC-55" value="id(question)" style="shape=partialRectangle;connectable=0;fillColor=none;top=0;left=0;bottom=0;right=0;align=left;spacingLeft=6;overflow=hidden;" vertex="1" parent="9TZeHPsGMFFsfMQyyFmC-53">
          <mxGeometry x="30" width="150" height="30" as="geometry" />
        </mxCell>
        <mxCell id="9TZeHPsGMFFsfMQyyFmC-56" value="" style="shape=partialRectangle;collapsible=0;dropTarget=0;pointerEvents=0;fillColor=none;top=0;left=0;bottom=0;right=0;points=[[0,0.5],[1,0.5]];portConstraint=eastwest;" vertex="1" parent="9TZeHPsGMFFsfMQyyFmC-46">
          <mxGeometry y="120" width="180" height="30" as="geometry" />
        </mxCell>
        <mxCell id="9TZeHPsGMFFsfMQyyFmC-57" value="" style="shape=partialRectangle;connectable=0;fillColor=none;top=0;left=0;bottom=0;right=0;editable=1;overflow=hidden;" vertex="1" parent="9TZeHPsGMFFsfMQyyFmC-56">
          <mxGeometry width="30" height="30" as="geometry" />
        </mxCell>
        <mxCell id="9TZeHPsGMFFsfMQyyFmC-58" value="description" style="shape=partialRectangle;connectable=0;fillColor=none;top=0;left=0;bottom=0;right=0;align=left;spacingLeft=6;overflow=hidden;" vertex="1" parent="9TZeHPsGMFFsfMQyyFmC-56">
          <mxGeometry x="30" width="150" height="30" as="geometry" />
        </mxCell>
        <mxCell id="9TZeHPsGMFFsfMQyyFmC-59" value="" style="shape=partialRectangle;collapsible=0;dropTarget=0;pointerEvents=0;fillColor=none;top=0;left=0;bottom=0;right=0;points=[[0,0.5],[1,0.5]];portConstraint=eastwest;" vertex="1" parent="9TZeHPsGMFFsfMQyyFmC-46">
          <mxGeometry y="150" width="180" height="30" as="geometry" />
        </mxCell>
        <mxCell id="9TZeHPsGMFFsfMQyyFmC-60" value="" style="shape=partialRectangle;connectable=0;fillColor=none;top=0;left=0;bottom=0;right=0;editable=1;overflow=hidden;" vertex="1" parent="9TZeHPsGMFFsfMQyyFmC-59">
          <mxGeometry width="30" height="30" as="geometry" />
        </mxCell>
        <mxCell id="9TZeHPsGMFFsfMQyyFmC-61" value="date" style="shape=partialRectangle;connectable=0;fillColor=none;top=0;left=0;bottom=0;right=0;align=left;spacingLeft=6;overflow=hidden;" vertex="1" parent="9TZeHPsGMFFsfMQyyFmC-59">
          <mxGeometry x="30" width="150" height="30" as="geometry" />
        </mxCell>
        <mxCell id="9TZeHPsGMFFsfMQyyFmC-62" value="" style="edgeStyle=orthogonalEdgeStyle;fontSize=12;html=1;endArrow=ERoneToMany;exitX=1;exitY=0.5;exitDx=0;exitDy=0;" edge="1" parent="1" source="9TZeHPsGMFFsfMQyyFmC-2" target="9TZeHPsGMFFsfMQyyFmC-18">
          <mxGeometry width="100" height="100" relative="1" as="geometry">
            <mxPoint x="310" y="170" as="sourcePoint" />
            <mxPoint x="410" y="70" as="targetPoint" />
            <Array as="points">
              <mxPoint x="290" y="85" />
              <mxPoint x="290" y="335" />
            </Array>
          </mxGeometry>
        </mxCell>
        <mxCell id="9TZeHPsGMFFsfMQyyFmC-63" value="" style="edgeStyle=entityRelationEdgeStyle;fontSize=12;html=1;endArrow=ERoneToMany;exitX=0;exitY=0.5;exitDx=0;exitDy=0;entryX=1;entryY=0.5;entryDx=0;entryDy=0;" edge="1" parent="1" source="9TZeHPsGMFFsfMQyyFmC-15" target="9TZeHPsGMFFsfMQyyFmC-34">
          <mxGeometry width="100" height="100" relative="1" as="geometry">
            <mxPoint y="600" as="sourcePoint" />
            <mxPoint x="100" y="500" as="targetPoint" />
          </mxGeometry>
        </mxCell>
        <mxCell id="9TZeHPsGMFFsfMQyyFmC-64" value="" style="fontSize=12;html=1;endArrow=ERmandOne;startArrow=ERmandOne;exitX=0;exitY=0.5;exitDx=0;exitDy=0;entryX=0;entryY=0.5;entryDx=0;entryDy=0;edgeStyle=orthogonalEdgeStyle;" edge="1" parent="1" source="9TZeHPsGMFFsfMQyyFmC-53" target="9TZeHPsGMFFsfMQyyFmC-31">
          <mxGeometry width="100" height="100" relative="1" as="geometry">
            <mxPoint x="-410" y="250" as="sourcePoint" />
            <mxPoint x="-370" y="430" as="targetPoint" />
            <Array as="points">
              <mxPoint x="-280" y="145" />
              <mxPoint x="-280" y="335" />
            </Array>
          </mxGeometry>
        </mxCell>
        <mxCell id="9TZeHPsGMFFsfMQyyFmC-65" value="" style="edgeStyle=entityRelationEdgeStyle;fontSize=12;html=1;endArrow=ERmandOne;startArrow=ERmandOne;entryX=0;entryY=0.5;entryDx=0;entryDy=0;exitX=1;exitY=0.5;exitDx=0;exitDy=0;" edge="1" parent="1" source="9TZeHPsGMFFsfMQyyFmC-50" target="9TZeHPsGMFFsfMQyyFmC-2">
          <mxGeometry width="100" height="100" relative="1" as="geometry">
            <mxPoint x="-310" y="180" as="sourcePoint" />
            <mxPoint x="-210" y="80" as="targetPoint" />
          </mxGeometry>
        </mxCell>
      </root>
    </mxGraphModel>
  </diagram>
</mxfile>
